<svg xmlns="http://www.w3.org/2000/svg" xmlns:xlink="http://www.w3.org/1999/xlink" viewBox="0 0 3000 3000" width="100%" height="100%"><defs><style>.cls-1-53{opacity:0.27;}.cls-2-53{fill:#dda9ff;}.cls-3-53{opacity:0.13;}.cls-4-53,.cls-5-53{fill:none;stroke:#000;stroke-linecap:round;stroke-miterlimit:10;}.cls-4-53{stroke-width:13px;}.cls-5-53{stroke-width:14px;}</style></defs><g id="body_ground_shadwo-53" data-name="body ground shadwo"><ellipse class="cls-1-53" cx="1334.82" cy="2682.24" rx="612.02" ry="58.67"/></g><g id="body_color_copy_7" data-name="body color copy 7"><path class="cls-2-53" d="M1075.21,1684.92l-86.3,76.44-81.19,108.46-57.17,122.51-32.25,136.1-6.75,96.68,6.35,91.23L835,2395.21l31.39,75.86,38.09,50.13,47.54,31,78.62,9.8,53.8-18.18,39.91-27.63,14.26-12.89-9.88,50-15.22,91.24,2.66,29.33,13.85,17,51.09,17.73,78.1,16.35h75.62l66.58-5.32,48.93-8.42,52-13.82,24.82-6.52,41.94,6.07,126.13,9.16,99.75-.28,77.23-5.54,66.85-9.41,35-7.15,26.94-20.17,3.93-17.17-4.13-32.14-26.1-52.19-43.66-30.74-77-13.9,10.76-205.51s11.6-13.31,15.48-16.39,47-58.42,47-58.42l25-55.24,10.56-19.26,31.14,13.27,62.08,11.3,70.55-7.08,44-23.38,49.3-35.46,42.09-44.1,45.13-60.73,24.32-63.88,17.23-65.23,5.15-65.54-6.61-53.5-17.62-48.7-32.84-34.56-44.43-25.16-50.48-7-43.5-2.38-47.62,10.35-47.78,27.42L2036,1718.43l-4.92,39.57,4.92,33.29-26.16,5.63-11.5,8.85-4.35,6.33-38.65-58.25-40.72-31.51-40.6-26.81,31.43-17.16,63.7-49.54,45.12-49.55L2062,1514.7l25.66-53.08,19.46-60.16,32.41-77s18.9-48.12,18.9-50.1c0-120.76-54.29-139.54-54.29-139.54l-17.37-31.47-26.54-55.74-22.12-48.66-38.92-53.08-40.7-42.47-35.39-32.73-84.93-62.81-67.24-33.62-70.78-27.43-73.43-21.23L1533,712.27l-76.08-3.54-109.71,10.61-100.85,26.55-81.4,33.62-67.24,37.15-77,58.39L963.2,934.33l-61.93,81.39-29.2,69-23.37,63.1-6.32,5.84L794.78,1169l-33.87,33-22.55,52v62.59l15.25,50.65L781,1405l52.34,22.55,25.51,2.22,26.54,65.47,44.24,61.93,38.93,41.58,61.93,50.43,47.77,29.19Z"/></g><g id="body_shadow" data-name="body shadow"><g class="cls-3-53"><path d="M1094.33,1787.19s-201.47,157.92-147.5,509.15c0,0,56.62,258.34,152.17,239.76l-45.17,19.08L987.54,2562l-45-14-53-42.94L852,2442.22s-19.3-58-20-60.58-15.21-73-15.21-73l-4.07-66,3.05-93.58,14.8-87.89,24.13-80.54,29.56-68.17,35.67-59,31.53-47.85,30.94-37.14,43.33-39.74,34.35-32.8,20.29-14.44-27.3-18.43-64-47.48-59.57-58.39-27.71-38.8-42.45-63.51-.62-25.09,42.47-18.58,35.39-38s89.35,468.89,829,367.15c13.61-1.87-115.08,25.45-101.63,22.66l90.13-18.72,59.92-21.23,59.94-27.48,16.88,11.15s-138.51,121.21-481.78,97.32S1157.34,1736.76,1094.33,1787.19Z"/><path d="M887.11,1291.31c0,35.64-22.14,64.54-49.45,64.54s-38.13-28.59-38.13-64.23,10.82-64.85,38.13-64.85S887.11,1255.67,887.11,1291.31Z"/><path d="M1573.17,2594.76c5-22.44,11.15-45.09,15.5-66,9.65-46.4,21-93.08,27.47-140,1.38-10.09,10.82-41.24-4.4-41.86a345.39,345.39,0,0,0-47.38,1.36l-45,207c-2.76,12.73-5.54,25.71-4.26,38.67,1.7,17.12,10.15,32.84,11.64,50,1.1,12.68-9.17,31.37,0,42.38,4.14,5,11.17,6.24,17.6,7.11,54.93,7.46,110,10.25,165.29,12.64h.92l112.2-1.68a17.54,17.54,0,0,0,1.77-.12l105.39-13.38,40.32-6.53a15.92,15.92,0,0,0,7-3l13.67-10.24c19.81-14.84,7.66-38.52,6.72-57.27l-8.71-23.49-9.17-10c5.94,6.46-12.78,24.53-16.48,27.49-13.29,10.63-30,17-46.12,22-49.56,15.11-100.57,18.33-151.92,21.17-41.23,2.29-82.9,2.88-123.77-3.88-14.26-2.36-29.29-5.19-42.53-11.13C1581.78,2628.28,1568.73,2614.52,1573.17,2594.76Z"/><path d="M1964,2021.1s239.6,257.11,382-130.4l-20.31,76.86L2277.13,2057l-57.28,64.14-72.94,47.35-81.48,18.63-48.89-5-53.72-19.66v-31.7l5.41-52.55Z"/><path d="M2047.55,1791.7s-47.47,7.88-9.43,71.58c0,0,38.93,88.47-12.38,101.74,0,0,7.07-21.24,8.84-23s-1-30.6-1-30.6l-15.51-33.06s-18.7-31.29-20.56-36,4.37-40.57,4.37-40.57l22.84-10.07,20.1-2.71Z"/><path d="M2158.44,1650.06s-139.78,42.47-82.27,165.44l-16.53-15s-22.62-9.72-24.28-13.26-4.87-29.41-4.59-31.07,5.2-35,5.2-35l19.58-28,29.33-21.85Z"/><path d="M910.12,1177.54s78.74-358.22,369.81-437l-115,38.93-81,47.6-83.15,68.5-73.31,85.71-52.94,78.26-27.88,94,40.48,9.18Z"/><path d="M1527.19,2638.53,1517,2606.15a27.42,27.42,0,0,1,.89,6.92c0,37.38-77.63,67.68-173.4,67.68s-173.4-30.3-173.4-67.68c0-10.07,8.47-24.59,18.57-33.18l1.72-5.79a2.09,2.09,0,0,1-2.82-2.32L1229,2372.66a44.63,44.63,0,0,1,51.53-35c28.26,5,69.15,9.6,119.68,9.6-108.73,0-195.06-106.63-211.45-199.06-8.65-48.77-14.07-95.19-13.38-144.66.75-52.56,2.46-108.52,10.89-166.33a2.09,2.09,0,0,0-4-1.14c-22.2,50.76-92.27,233.07-29,385.72a1.4,1.4,0,0,0,.15.3l43,70.9a2.56,2.56,0,0,1,.24.56l4.42,17a62.9,62.9,0,0,1-1.35,36.2l-4.83,14.12a2.11,2.11,0,0,1-1.14,1.24l-26.61,11.66a2.06,2.06,0,0,1-1.07.16l-21.94-2.52a2.1,2.1,0,0,0-2.27,2.61l7.71,29.28a1.59,1.59,0,0,1,.06.38l3.63,49.69a2.11,2.11,0,0,1-.08.75l-14.6,49.1-.06.26-24.2,149.68a2.1,2.1,0,0,0,0,.79l6,26.41a2.08,2.08,0,0,0,1.18,1.45l59.31,26.68a2,2,0,0,0,.49.15l69,12.26.26,0,84.09,4h.26l60.19-4.53.24,0,83.39-16a1.05,1.05,0,0,0,.24-.06l40.42-13a2.09,2.09,0,0,0,1.43-1.73l6.33-50.94"/><path d="M1918.06,2248.79s-59.53,81.86-149.77,94c0,0,23,15,91.12-2.65l4.42-20.35,8.85-16.81,10.48-10.21"/></g></g><g id="Base_Body_V3" data-name="Base Body V3"><path class="cls-4-53" d="M1124.34,2330.45s65.27,121.25,0,185.71c-26,25.66-63.7,40.75-100.54,44.76-169.74,18.5-211.9-213.21-212.25-327.21-1.19-384.43,268.87-552.24,268.87-552.24"/><path class="cls-4-53" d="M1188.61,1822.33c-25.84,55.2-43,113.78-52.34,173.17-9.26,58.83-13.91,121.32.77,179.71,4.69,18.63,10.62,36.6,19.91,53.7,18.31,33.72,51.4,65.64,48.8,105.78-2.14,33.08-31.85,46-64.61,36.29"/><path class="cls-4-53" d="M1875.87,1822.33s102.57,98.45,91,287.14c0,0-3.62,117-95.28,193.58a25.6,25.6,0,0,0-9.21,18.23c-1.49,27.45-5.31,101.95-8.34,196,0,0,145.74-10.32,150.89,129,.65,17.51-12.29,33-30.87,37.34-61.79,14.38-217.56,40-453.39,7.15,0,0-171.42,71-375.08,8-21.91-6.79-35.72-26.6-33-47.6,3.64-28.11,11-75.14,26-147.9"/><path class="cls-4-53" d="M1142.45,2598.2s115.4-73.83,237.21-58.6,165.4,61,141,151.19"/><path class="cls-4-53" d="M1854.07,2517.33s-133.35-.74-200.62,45.13"/><line class="cls-4-53" x1="1511.37" y1="2594.76" x2="1564.29" y2="2347.39"/><path class="cls-4-53" d="M1962.82,2162.51c234.13,119.66,454.59-224.88,374-427.73-28.07-70.68-107.32-90.8-182.53-84.12,0,0-145.76,11-120.63,133.23"/><path class="cls-4-53" d="M2078,1825.24c-8.17-25.5-34.33-44.87-63.48-32.33-21.57,9.27-24.07,30.78-17,49.43a121.09,121.09,0,0,0,13,24.25c40.21,59.72,25.13,80.86,13.07,95.56"/><path class="cls-4-53" d="M1994,1809.24s-53-83.28-120-110.78"/><path class="cls-4-53" d="M910.12,1403.57c-18.06,15.13-39.93,24-63.49,24-62,0-112.3-61.34-112.3-137s50.28-137,112.3-137c23.56,0,45.43,8.85,63.49,24"/><path class="cls-5-53" d="M847.68,1226.92c24.22,0,43.86,28.83,43.86,64.39s-19.64,64.39-43.86,64.39"/><path d="M2129.2,1143.53a144,144,0,0,0-31.17-30.72,536.58,536.58,0,0,0-23-56.35c-32.82-68.83-79.79-130.63-139.61-183.69s-129.34-94.63-206.81-123.7c-80.17-30.08-165.32-45.33-253.08-45.33a723.09,723.09,0,0,0-219.4,33.67,674.64,674.64,0,0,0-187.55,93.24c-56,39.93-104,87.44-142.51,141.21-39.24,54.78-67.57,114.53-84.18,177.58a5.75,5.75,0,0,0,11.12,2.93c16.26-61.69,44-120.17,82.41-173.82,37.78-52.73,84.83-99.34,139.84-138.54a663,663,0,0,1,184.36-91.64,711.53,711.53,0,0,1,215.91-33.13c86.38,0,170.17,15,249,44.6,76.14,28.57,144.52,69.46,203.22,121.54s104.7,112.6,136.85,180a522.14,522.14,0,0,1,24.57,61.08c1.7,1.17,3.39,2.41,5.06,3.7.85.67,1.71,1.35,2.55,2l.54.43c.91.76,1.82,1.54,2.72,2.34l.82.73c.88.79,1.76,1.59,2.63,2.42.22.2.43.42.65.63a141.8,141.8,0,0,1,14.69,16.6c21.6,28.51,34,65.55,34,101.63,0,40.38-11.31,77.31-31.91,104.43h0c-.65.86-1.31,1.7-2,2.53-.89,1.11-1.79,2.18-2.69,3.24l-1,1.09c-.6.69-1.2,1.36-1.81,2-.38.42-.77.83-1.16,1.25-.57.6-1.14,1.19-1.72,1.78-.39.4-.78.81-1.18,1.2-.91.9-1.83,1.8-2.76,2.66-20,109.66-76.83,202.64-167.34,272.26-54.72,42.09-120.47,74.65-195.41,96.79s-157.82,33.42-245.91,33.42c-73.58,0-145.3-7.85-213.16-23.33S1154,1714,1098,1684.31c-117.39-62.14-199.49-151.36-237.44-258a5.75,5.75,0,0,0-10.83,3.85c38.92,109.43,122.91,200.84,242.89,264.35,56.87,30.1,120.69,53.35,189.67,69.09,68.7,15.67,141.28,23.62,215.72,23.62,89.2,0,173-11.4,249.17-33.89,76.31-22.54,143.31-55.75,199.16-98.7,91.16-70.12,149-163.31,170.49-273.08a136.34,136.34,0,0,0,12.27-13.43c23.68-29.62,36.73-70.49,36.73-115.08C2165.83,1214.15,2152.48,1174.25,2129.2,1143.53Z"/></g><defs><style>.cls-1-174{fill:#8cc9ff;}.cls-2-174{fill:#7d7d7b;}.cls-3-174{fill:#5f2c59;}.cls-4-174{fill:#32672f;}.cls-5-174{fill:#333;}.cls-6-174{fill:#472244;}.cls-7-174{opacity:0.32;}.cls-1-1740-174,.cls-1-1741-174,.cls-1-1742-174,.cls-1-1743-174,.cls-1-1744-174,.cls-1-1745-174,.cls-8-174,.cls-9-174{fill:none;}.cls-1-1741-174,.cls-1-1742-174,.cls-1-1743-174,.cls-1-1744-174,.cls-1-1745-174,.cls-8-174,.cls-9-174{stroke:#000;}.cls-1-1742-174,.cls-8-174,.cls-9-174{stroke-linecap:round;}.cls-1-1741-174,.cls-1-1743-174,.cls-1-1744-174,.cls-8-174,.cls-9-174{stroke-miterlimit:10;}.cls-1-1741-174,.cls-8-174{stroke-width:13px;}.cls-1-1742-174,.cls-1-1743-174,.cls-1-1745-174,.cls-9-174{stroke-width:11px;}.cls-1-1742-174,.cls-1-1745-174{stroke-linejoin:round;}.cls-1-1744-174{stroke-width:12px;}</style></defs><g id="JOKER_SUIT2" data-name="JOKER SUIT2"><path class="cls-1-174" d="M1030.44,1649.18l7.67,4.68q-5.37-3.66-10.78-7.22Z"/><path class="cls-2-174" d="M1132,2169c-8-1-15,6-24,8-6,1-13-1-19,1-89.93,30-186.94,35.72-277.42,13.17l4.14,82c75.24,15.32,151.33-.37,228.28-15.2,36-6.63,70.18-15.06,103.43-29.53-3.26-13.94-4.79-28.18-8.43-43.47C1138,2179,1139,2170,1132,2169Z"/><path class="cls-2-174" d="M1558,1971c6-20,9-41,21-59-27-17-52-37-77-56,25.31-24.4,56.33-45.54,72.4-78.18q-15.5,1.17-31.11,1.79c5.24.06,10.48.18,15.71.39-5.23-.21-10.47-.33-15.71-.39-3.76.15-7.52.29-11.29.39,3.77-.1,7.53-.24,11.29-.39-43.77-.45-87.63,3.86-132.29-.61q-6.16-.66-12.33-1.44c23.87,32.83,43,69.48,59.06,107.44l1.27,1C1493,1915,1523,1945,1558,1971Z"/><path class="cls-2-174" d="M1638,1900c1,18,13,37,24,54,12.77-22.71,27.58-43.89,45.45-62.5q.46-35.74,3.55-71.5c2-17,3-34,7-51,1.33-6,2.66-11.52,4-17.2a703,703,0,0,1-123.75,23.87c19,32.19,47.14,57,70.77,86.33C1659,1876,1638,1885,1638,1900Z"/><path class="cls-3-174" d="M1619,2026c15.81-23,31.62-47,42.23-73.19-10.78-16.7-22.25-35.23-23.23-52.81,0-15,21-24,31-38-23.63-29.3-51.72-54.14-70.77-86.33q-11.89,1.24-23.83,2.15c-16.07,32.64-47.09,53.78-72.4,78.18,25,19,50,39,77,56-11.69,17.53-14.84,37.9-20.54,57.42C1576.54,1990.77,1597.77,2007.54,1619,2026Z"/><path class="cls-4-174" d="M1707.45,1891.5c-17.87,18.61-32.68,39.79-45.45,62.5l-.77-1.19C1650.62,1979,1634.81,2003,1619,2026c-21.23-18.46-42.46-35.23-60.54-56.58-.15.53-.3,1.06-.46,1.58-35-26-65-56-99-85l-1.27-1,1.27,3c1,1,3,4,3,6,33,83,31,170,16,258-5,26-7,49-14,74-7,28-17,53-33,77,15,2,31,4,44-1a50.73,50.73,0,0,1,9-2c46-11,88-19,129-42,6-3,13-12,19-6,2,2,8-1,7,4,9,0,18,1,25,5,3,1,6,1,8,4,2,2,6,0,9,1,15,8,29,14,45,16,19,3,38,2,55,10C1732.43,2165.05,1705.66,2028.66,1707.45,1891.5Z"/><path class="cls-5-174" d="M1624,2580c-38,16-80,5-121,5-44-46-114-47-174-48-55,0-106,23-155,46-16.53,8.27-37.85,22.68-52.09,11.05l-8.41,50.44,2.66,29.33,13.85,17,51.09,17.73,78.1,16.35h75.62l66.58-5.32,48.93-8.43,52-13.81,24.82-6.52,41.94,6.07,126.13,9.16,99.75-.28,77.23-5.54,66.85-9.41,35-7.15,26.94-20.17,3.93-17.17-4.13-32.14-26.1-52.19-43.66-30.74-77-13.9.22-2.59c-50,6.66-99,3.71-146.29,22.26C1679,2548,1653,2567,1624,2580Z"/><path class="cls-6-174" d="M1726,2282c-16-2-30-8-45-16-3-1-7,1-9-1-2-3-5-3-8-4-7-4-16-5-25-5,1-5-5-2-7-4-6-6-13,3-19,6-41,23-83,31-129,42a50.73,50.73,0,0,0-9,2c-11.35,4.37-25,3.39-38.26,1.75C1397.3,2358.9,1355.9,2414.7,1292,2443c-46.8,21.48-98.31,41.2-150,42.44a155.26,155.26,0,0,1-12.6,26.16l9.21-8.33-9.88,50-6.81,40.8c14.24,11.63,35.56-2.78,52.09-11.05,49-23,100-46,155-46,60,1,130,2,174,48,41,0,83,11,121-5,29-13,55-32,84-43,47.31-18.55,96.34-15.6,146.29-22.26l6.87-80.37c-30.05-45.14-56.41-92.71-80.16-142.37C1764,2284,1745,2285,1726,2282Z"/><path class="cls-3-174" d="M2262.33,2081.89A32.11,32.11,0,0,0,2252,2098c-90-15-195-45-232-138a14.07,14.07,0,0,0,5.7-2.45c15.9-32.6,3-68-14.7-98.55-8.56-15-17.11-31.48-18-48.42l-37.64-56.73-40.72-31.51-37.83-25c-10.85,4.45-21.76,9-32.76,13.64-32,14-66,23-100,34q-11,3.62-22,6.8c-1.32,5.68-2.65,11.22-4,17.2-4,17-5,34-7,51-14,161,13,323,70,472,23.75,49.66,50.11,97.23,80.16,142.37l0-.63s64.75,46.47,68.87,43.73c16.58-11.06,30.94-208.1,30.94-208.1l6-81.54-4.21-25.32,31.14,13.27,62.08,11.3,70.55-7.08,51.49-13.38,86.32-58.85Z"/><path class="cls-3-174" d="M1436.74,2303.75c-1.92-.24-3.84-.5-5.74-.75,16-24,26-49,33-77,7-25,9-48,14-74,15-88,17-175-16-258,0-2-2-5-3-6-16.26-39-35.84-76.74-60.33-110.44-60.86-7.68-121.55-23.3-183.37-37.35-40-9-71.3-23.21-108.3-41.21-10.06-4.65-21.32-9.3-31-15.8l-.79,1.72-86.3,76.44-81.19,108.46-57.17,122.51-52,159.61-3.45,25.28,16.46,13.4,0,.55C902.06,2213.72,999.07,2208,1089,2178c6-2,13,0,19-1,9-2,16-9,24-8,7,1,6,10,7,16,3.64,15.29,5.17,29.53,8.43,43.47,1.86-.81,3.72-1.62,5.57-2.47,22,38,63,75,48,123-7,25-37,30-60,26a153.88,153.88,0,0,1,1,110.44c51.7-1.24,103.21-21,150-42.44C1355.9,2414.7,1397.3,2358.9,1436.74,2303.75Z"/><path class="cls-2-174" d="M2284.84,2046.24c-5.59.12-11.2,0-16.84-.24-86-5-182-21-243-87,.25-.48.47-1,.7-1.45a14.07,14.07,0,0,1-5.7,2.45c37,93,142,123,232,138a32.11,32.11,0,0,1,10.33-16.11l-.39-4.83Z"/><path class="cls-7-174" d="M1765.63,1740.3l-.62.08-3.4,1.21C1766.13,1740.51,1768,1740,1765.63,1740.3Z"/><path class="cls-7-174" d="M1870.56,1697.1l3.64-1.43-.21-.14Z"/><path class="cls-7-174" d="M1874.2,1695.67l-3.64,1.43L1814.05,1723l-19.4,6.87c-124.86,54.28-261.56,55.58-394.65,45.12-56-5-110-20-168-30-56.11-10.64-101.93-39.06-152.84-62.64l-19,13.55-34.35,32.8-43.33,39.74-30.94,37.14L920,1853.44l-35.67,59-29.56,68.17-24.13,80.54-34.29,106.93,15.22,22.53,1.22,52,1.72,28c42.65,3.32,85.67-.57,128.72-.67-40.22-332.73,151.12-482.73,151.12-482.73,63-50.43-28.5-7.08,314.76,16.81s481.78-97.32,481.78-97.32Z"/><path class="cls-7-174" d="M1573.17,2594.76c5-22.44,11.15-45.09,15.5-66,9.65-46.4,21-93.08,27.47-140,1.38-10.09,10.82-41.24-4.4-41.86a345.39,345.39,0,0,0-47.38,1.36l-45,207c-2.76,12.73-5.54,25.71-4.26,38.67,1.7,17.12,10.15,32.84,11.64,50,1.1,12.68-9.17,31.37,0,42.38,4.14,5,11.17,6.24,17.6,7.11,54.93,7.46,110,10.25,165.29,12.64h.92l112.2-1.68a17.54,17.54,0,0,0,1.77-.12l105.39-13.38,40.32-6.53a15.92,15.92,0,0,0,7-3l13.67-10.24c19.81-14.84,7.66-38.52,6.72-57.27l-8.71-23.49-9.17-10c5.94,6.46-12.78,24.53-16.48,27.49-13.29,10.63-30,17-46.12,22-49.56,15.11-100.57,18.33-151.92,21.17-41.23,2.29-82.9,2.88-123.77-3.88-14.26-2.36-29.29-5.19-42.53-11.13C1581.78,2628.28,1568.73,2614.52,1573.17,2594.76Z"/><path class="cls-7-174" d="M1964,2021.1l4.27,57.16-5.41,52.55v31.7l53.72,19.66,48.89,5,85.91-10.58,94.31-48.4,20.16-23.68-3.87-27.42,17.59-30.22c-6.71-.58-13.46-1.06-20.05-2C2123.4,2192.19,1964,2021.1,1964,2021.1Z"/><path class="cls-7-174" d="M1284.16,2253.79c-95.55-232.69-79.08-332.52-90.73-431.46-.28-2.42-10.13,11.46-11.1,13.69-22.2,50.76-92.27,233.07-29,385.72a1.4,1.4,0,0,0,.15.3l43,70.9a2.56,2.56,0,0,1,.24.56l4.42,17a62.9,62.9,0,0,1-1.35,36.2l-4.83,14.12a2.11,2.11,0,0,1-1.14,1.24l-26.61,11.66a2.06,2.06,0,0,1-1.07.16l-21.94-2.52a2.1,2.1,0,0,0-2.27,2.61l7.71,29.28a1.59,1.59,0,0,1,.06.38l3.63,49.69a2.11,2.11,0,0,1-.08.75l-9.59,32.26c22.61-1.64,22.61-1.64,140.51-38C1284.16,2448.32,1326.38,2356.61,1284.16,2253.79Z"/><path class="cls-7-174" d="M1517,2606.15a27.42,27.42,0,0,1,.89,6.92c0,37.38-77.63,67.68-173.4,67.68s-173.4-30.3-173.4-67.68c0-10.07,8.47-24.59,18.57-33.18l1.72-5.79a2.09,2.09,0,0,1-2.82-2.32l20.29-99.88c-20.29,9.39-42.61,12.76-65.22,14.4l-5,16.84-.06.26-24.2,149.68a2.1,2.1,0,0,0,0,.79l6,26.41a2.08,2.08,0,0,0,1.18,1.45l59.31,26.68a2,2,0,0,0,.49.15l69,12.26.26,0,84.09,4h.26l60.19-4.53.24,0,83.39-16a1.05,1.05,0,0,0,.24-.06l40.42-13a2.09,2.09,0,0,0,1.43-1.73l6.33-50.94Z"/><path class="cls-8-174" d="M865.83,1952.54c78.54-186.53,214.59-271.07,214.59-271.07"/><path class="cls-8-174" d="M812.77,2267.72c-.8-12.14-1.19-23.57-1.22-34q-.06-20.55.88-40.26"/><path class="cls-8-174" d="M1139.41,2365.88c12.52,35.76,24.47,91.53-1.5,133.32"/><path class="cls-8-174" d="M1157,2228.91c18.31,33.72,51.4,65.64,48.8,105.78-2.14,33.08-31.85,46-64.61,36.29"/><path class="cls-8-174" d="M1188.61,1822.33c-25.84,55.2-43,113.78-52.34,173.17-9.26,58.83-13.91,121.32.77,179.71,4.69,18.63,10.62,36.6,19.91,53.7"/><path class="cls-8-174" d="M1857.37,2428.22c-1.14,27.35-2.22,55.52-3.3,89.11,0,0,145.74-10.32,150.89,129,.65,17.51-12.29,33-30.87,37.34-61.79,14.38-217.56,40-453.39,7.15,0,0-171.42,71-375.08,8-21.91-6.79-35.72-26.6-33-47.6,3.64-28.11,11-75.14,26-147.9"/><path class="cls-9-174" d="M1875.87,1822.33s97.43,96,93.78,287.14"/><path class="cls-8-174" d="M1142.45,2598.2s115.4-73.83,237.21-58.6,165.4,61,141,151.19"/><path class="cls-8-174" d="M1854.07,2517.33s-133.35-.74-200.62,45.13"/><line class="cls-8-174" x1="1511.37" y1="2594.76" x2="1564.29" y2="2347.39"/><path class="cls-8-174" d="M2248.07,2093.27a451.55,451.55,0,0,0,38.72-48.42"/><path class="cls-8-174" d="M1874,1698.46c67,27.5,120,110.78,120,110.78l.51,8.43c-1.31,7.94,0,16.57,3,24.67a121.09,121.09,0,0,0,13,24.25c40.21,59.72,25.13,80.86,13.07,95.56"/><path d="M1872.62,1689.09c-39,21.61-82.09,39.41-128.7,53.18-75.08,22.17-157.82,33.42-245.91,33.42-73.58,0-145.3-7.85-213.16-23.33S1154,1714,1098,1684.31q-10.29-5.44-20.22-11.19a54,54,0,0,1-9.23,8q11.79,6.9,24.07,13.4c56.87,30.1,120.69,53.35,189.67,69.09,68.7,15.67,141.28,23.62,215.72,23.62,89.2,0,173-11.4,249.17-33.89,50.46-14.91,96.85-34.48,138.64-58.45C1881.68,1692.49,1877.6,1689.62,1872.62,1689.09Z"/><path class="cls-1-1740-174" d="M1129.19,2128.3l13.26,3s393.84,82.19,818.57-7.83"/><path class="cls-1-1741-174" d="M1134.81,2165.6S929,2236.78,806,2185.23a17.92,17.92,0,0,1-10.53-20.38c8.77-39.73,43.69-168.39,97.77-269.63"/><path class="cls-9-174" d="M812.77,2273.6s230,10.1,340.52-51.86"/><path class="cls-1-1742-174" d="M1251.6,1753.85s6.42,41-7.65,103.34l76.82,10L1282.36,1907s183.76,181.43,106.35,458.9"/><path class="cls-1-1743-174" d="M1395.52,1775s128.19,105.07,79.79,401.12S1142,2483.5,1142,2483.5"/><path class="cls-1-1743-174" d="M1574.16,1778.6s-53.93,69.8-112.9,106.37"/><path class="cls-1-1743-174" d="M1595.83,1776c.46,1.11,41.7,60.19,87.94,99.62l22.62-28.43"/><path class="cls-1-1743-174" d="M1502.25,1855.68s44.3,36.24,76,51.3,54.28-7.06,54.28-7.06l34.8-39.36"/><line class="cls-1-1743-174" x1="1576.71" y1="1912.23" x2="1558.63" y2="1971.8"/><path class="cls-1-1743-174" d="M1461.4,1890.37l158,133.52s26.68,100.14,6.8,229.62c0,0-82.13,50.57-195.12,45.26"/><path class="cls-1-1743-174" d="M1626.47,2253.79s64.19,26.24,153,38.37"/><line class="cls-1-1743-174" x1="1635.69" y1="1902.09" x2="1661.82" y2="1953.7"/><line class="cls-1-1743-174" x1="1706.39" y1="1887.01" x2="1620.61" y2="2023.07"/><path class="cls-1-1743-174" d="M1713.93,1757.61s-56.69,374,129.24,648.48c0,0,22.65,39.71,76,67.47a15.21,15.21,0,0,0,22.1-11.56c8.8-68.86,33-287.13,27.69-391.43"/><path class="cls-1-1743-174" d="M1145.63,2597s-11.12,10.11-23.34-5.24"/><path class="cls-1-1744-174" d="M1656.65,2560.34s-36.86,34.75-141.84,25.7"/><path class="cls-1-1745-174" d="M1801.25,2335.05c-9.7-166.54,52.82-438.65,52.82-438.65s-28-25.14-65.24-36.19c0,0,45.51-28.09,48.89-44.71,0,0-29.76-71.41-49.88-82.72"/><path class="cls-9-174" d="M2026.25,1958.85s55.06,84.21,258.56,84"/><path class="cls-9-174" d="M2020.05,1965c.51,1.53,32.09,99.17,228,130.43"/><path class="cls-1-1744-174" d="M2257.79,2082.11s32.19,18.37-23.61,54-105.22,54-170.57,51.44l-3.85-.46c-29-.17-58.92-6.67-89.11-20.79"/><circle class="cls-1-1743-174" cx="841.89" cy="2151.94" r="18.28"/><path class="cls-7-174" d="M1784.12,2299.16l70,122.09,2.13,35.86s-65.74-5-97-83.18c0,0-38-72.42-47.06-329.08l30.16,143Z"/></g><defs><style>.cls-1-353{fill:#81bb3f;}.cls-2-353{opacity:0.22;}.cls-3-353,.cls-4-353,.cls-5-353,.cls-6-353,.cls-7-353{fill:none;stroke:#000;}.cls-3-353,.cls-5-353{stroke-linejoin:round;}.cls-3-353,.cls-4-353,.cls-5-353,.cls-6-353{stroke-width:11px;}.cls-4-353,.cls-6-353,.cls-7-353{stroke-miterlimit:10;}.cls-5-353,.cls-6-353,.cls-7-353{stroke-linecap:round;}.cls-7-353{stroke-width:13px;}</style></defs><path class="cls-1-353" d="M989.48,800.6c11.83-10.3,24.8-20.28,40.15-23.55s33.58,2.12,40.66,16.12c12.6-46.71,67.24-77.31,113.65-63.66,5.34,1.57,10.68,3.65,16.25,3.56,6.67-.11,12.83-3.32,18.8-6.29,104.67-52.16,227.47-53,343.58-39.11,122.54,14.66,248.89,47.42,339.77,130.92-.66-23.49,35.22-32.19,53.23-17.1s21.77,40.86,24.21,64.23l59.68-59.91c2.58-2.59,5.32-5.27,8.84-6.24,11.44-3.14,18.34,12.24,20.06,24,5.91,40.44,10.95,82.82-2.83,121.3s-52.44,71.25-92.71,64.27c-7.22-1.25-14.37-3.71-21.68-3.13-10.79.86-19.82,8.09-29.37,13.2-32,17.19-75.56,8.91-99.06-18.82-20.4,22.16-47.72,39.38-77.75,41.8s-62.31-12.5-74.93-39.85a94.8,94.8,0,0,1-155.35,5.39c-23.36,29.84-74.62,31.22-99.56,2.68-25.95,20.77-64.62,24-93.67,7.87a136.75,136.75,0,0,1-92.24,12.7c-8.78,48.27-60.53,74.49-89.32,114.22-31.27,43.15-33.81,100-50.24,150.7-2.31,7.13-5.19,14.57-11.15,19.11-11.15,8.51-28.42,2.53-36.74-8.76s-10.08-26-11.56-39.92c-17,29.82-44.17,64.32-77.37,55.65-26.45-6.92-38.14-38.43-38.64-65.77s5.82-55.48-2.31-81.59c-3.44-11.06-34.3-19.21-43.93-21.13-11.59-2.3-27.31,1.44-33.4-11-5.14-10.54-1-28.48.09-39.52a450.57,450.57,0,0,1,7.17-47.38,469,469,0,0,1,75.66-174.92A447.33,447.33,0,0,1,989.48,800.6Z"/><path class="cls-2-353" d="M1999,977c-13,4-31,2-37-11-26,27-69,36-104,21-11-4-20-12-23-25-19,28-54,41-87,37-20-2-51-8-55-32a89.23,89.23,0,0,1-58,32c-32,4-79,8-97-23-25,21-73,34-98,9-34,16-85,18-114-9-31,20-70,17-105,9-2.4,16.79-.32,34.22,7.77,48.2.16-.74.3-1.49.44-2.24a136.75,136.75,0,0,0,92.24-12.7c29,16.15,67.73,12.9,93.67-7.87,24.94,28.54,76.2,27.16,99.56-2.68a94.8,94.8,0,0,0,155.35-5.39c12.62,27.35,44.91,42.26,74.93,39.85s57.35-19.64,77.75-41.8c23.5,27.73,67,36,99.06,18.82,9.55-5.11,18.58-12.34,29.37-13.2,7.31-.58,14.46,1.88,21.68,3.13,40.27,7,78.94-25.78,92.71-64.27a138.38,138.38,0,0,0,4-13.46C2050.59,952.74,2027.72,970.13,1999,977Z"/><path class="cls-2-353" d="M1073,1267c3-81,34-157,87-220,29-33-11-59-30-87-8-14-10-29-5-44,4-13,24-22,21-30-5-12-29-16-34-33-10-35,4-67,23-96,7.68-12.29,18-23.27,30-30.65-41.33-2-83.78,26.36-94.7,66.82-7.08-14-25.32-19.38-40.66-16.12s-28.32,13.25-40.15,23.55a447.33,447.33,0,0,0-72,80,469,469,0,0,0-75.66,174.92,450.57,450.57,0,0,0-7.17,47.38c-1.08,11-5.23,29-.09,39.52,6.09,12.47,21.81,8.73,33.4,11,9.63,1.92,40.49,10.07,43.93,21.13,8.13,26.11,1.81,54.24,2.31,81.59S926.38,1315,952.83,1322c33.2,8.67,60.39-25.83,77.37-55.65,1.48,14,3.24,28.62,11.56,39.92a32.34,32.34,0,0,0,10.36,9A69.33,69.33,0,0,0,1059,1307,77.37,77.37,0,0,0,1073,1267Z"/><path class="cls-1-353" d="M1098.85,1692.65c-10.61,18.69,15,52.14,6.46,71.88-5.6,13-22.1,18.36-36,15.69s-25.75-11.43-36.94-20.1c-7.22-5.6-15.23-14.07-11.75-22.53-19.28,28.79-3.82,54.17-24.75,68.32-17.33,11.72-42.07,8.64-58.49-4.31s-25.08-34-26.64-54.82,3.3-41.68,9.9-61.53c-10.07,11.85-14.85,27.37-24.28,39.74s-27.41,21.19-40.4,12.64c-8.86-5.84-11.86-17.79-10.54-28.33s6.12-20.26,9.79-30.22a147.24,147.24,0,0,0,9.06-57.45c-11.76,5.65-25.37,4.57-37.52.28-10-3.53-21.6-9.21-19.42-21.68,1.7-9.72,7-19.49,9.93-29,14.29-45.82,20.81-96.15,12.17-143.71,0,0,18.43,0,19.44,0s6.37-.63,6.37-.63L867,1456.74l19.43,37.53,25.13,42.56,32.17,37.2,33.18,33.84,47.25,35.86,44.23,31Z"/><path class="cls-2-353" d="M1098.85,1692.65l-30.5-17.87-44.23-31-47.25-35.86L943.69,1574l-32.17-37.2-25.13-42.56L867,1456.74l-11.73-29.82s-5.37.67-6.37.63-19.44,0-19.44,0c8.64,47.56,2.12,97.89-12.17,143.71-3,9.48-8.23,19.25-9.93,29-2.18,12.47,9.41,18.15,19.42,21.68,12.15,4.29,25.76,5.37,37.52-.28a147.24,147.24,0,0,1-9.06,57.45c-3.67,10-8.46,19.69-9.79,30.22s1.68,22.49,10.54,28.33c13,8.55,31-.28,40.4-12.64s14.21-27.89,24.28-39.74c-6.6,19.85-11.45,40.68-9.9,61.53s10.22,41.88,26.64,54.82c1.12.89,2.28,1.72,3.48,2.51,17-5,30.94-21.83,34.15-41.11,4-24-4-46,4-69,38.64,20.57,82.72,46.18,127.4,53.61C1103.29,1729,1090.89,1706.67,1098.85,1692.65Z"/><path class="cls-3-353" d="M829.42,1427.55c8.64,47.56,2.12,97.89-12.17,143.71-3,9.48-8.23,19.25-9.93,29-2.18,12.47,9.41,18.15,19.42,21.68,12.15,4.29,25.76,5.37,37.52-.28a147.24,147.24,0,0,1-9.06,57.45c-3.67,10-8.46,19.69-9.79,30.22s1.68,22.49,10.54,28.33c13,8.55,31-.28,40.4-12.64s14.21-27.89,24.28-39.74c-6.6,19.85-11.45,40.68-9.9,61.53s10.22,41.88,26.64,54.82,41.16,16,58.49,4.31c20.93-14.15,5.47-39.53,24.75-68.32-3.48,8.46,4.53,16.93,11.75,22.53,11.19,8.67,23,17.44,36.94,20.1s30.41-2.69,36-15.69c8.51-19.74-17.07-53.19-6.46-71.88"/><path class="cls-4-353" d="M831.56,1152.08c.56-133.66,61-265.9,161.4-353,11.48-10,23.95-19.63,38.66-23.26s32.22.23,40.73,12.88c15-52,83.11-79.74,129.67-52.91,100-59.5,223-62.83,338.54-51.63C1670.09,696.69,1805,729,1899.41,819.49"/><path class="cls-5-353" d="M1323.37,1020.26c-29.23,16.79-64,27.46-94,12.1A90.76,90.76,0,0,1,1209,1082.2c-15.82,19.15-38.86,31-55.82,49.17-39.26,42.05-37.89,106.56-56.44,161-3.19,9.34-7.24,18.81-14.64,25.33s-19,9.28-27.29,4c-7.5-4.74-10.31-14.14-12.55-22.72l-8.58-32.87c-7.9,14.48-16,29.2-27.78,40.74s-28.11,19.61-44.5,17.66c-9.85-1.18-19.11-5.92-26.45-12.6-17.27-15.73-20.45-40.81-22-64.12-2.87-43.4-1.1-65.56,3.9-84"/><path class="cls-6-353" d="M1332.51,920.08c19.07-13.26,26.15-36.83,36.43-57.2s29.92-40.93,53.12-37.2c20.36,3.28,32.51,23.76,37.76,43,8.18,30,6.54,62.55-5.89,91.13a128.83,128.83,0,0,1-65,65.86c-21.35,9.48-49.9,11.51-65.55-5.38"/><path class="cls-6-353" d="M1226.12,921.17c2.75-10.84,7.11-21.36,11.85-31.53,4.92-10.58,10.41-21.13,18.51-29.54s19.22-14.52,30.89-14.25c13.22.3,24.86,8.47,35,16.91s20.33,17.79,33.09,21.29"/><path class="cls-4-353" d="M1459.09,860.59c15.75-3.35,28.93-22.38,37.4-32.32s19-19.67,32-20.85,25.75,7.05,32.8,18.15,9.34,24.56,9.91,37.69c2.15,49.86-18.65,98.85-50,137.68-10.15,12.57-22,24.61-37.08,30.29-13.47,5-50.45,9.71-67.54-17.5"/><path class="cls-4-353" d="M1573,861.26c23.12,4.69,39.37-13.88,50.65-25.73a235,235,0,0,0,20-24.7c4-5.86,8.63-12.37,15.64-13.48,3.43-.54,6.93.36,10.16,1.64,16.51,6.55,27.41,22.63,33.82,39.19a129,129,0,0,1,7.91,32.44c2.9,26.3-2.38,52.94-10.86,78-7.21,21.36-16.91,42.17-31.36,59.46s-34,30.92-56.13,35.35c-18.7,3.75-71.68,4.81-93.13-35.07"/><path class="cls-4-353" d="M1709.41,848.19c33.51-10.72,32.53-52.93,55-64.6,11-5.72,24.6-4,36,1,23.84,10.47,40.19,34,47,59.15s5,51.83.67,77.5-11.48,51.11-25.44,73-35.44,40-60.87,45c-40.54,8-72.59-13.52-86.79-35.22"/><path class="cls-6-353" d="M1856.18,855.56c16.76,0,30.13-15,35.4-22.22,5.76-7.86,10-16.72,15.73-24.6s13.4-15,22.92-17c12.48-2.68,25.57,4.17,33.4,14.25s11.28,22.85,13.48,35.42a229.84,229.84,0,0,1-20.75,141.18c-6.68,13.37-15.08,26.52-27.68,34.56-7.92,5.06-17.1,7.82-26.31,9.72-11.17,2.3-22.73,3.41-34,1.52-8.43-1.41-31-4.57-47.07-26.68"/><path class="cls-4-353" d="M1981.46,860a93.11,93.11,0,0,0,45.32-40.9c2.49-4.49,4.64-9.2,8-13.19s8.29-7.28,13.85-7.55c6.34-.3,12.28,3.44,15.76,8.25s4.93,10.56,6.14,16.2a262.64,262.64,0,0,1,3.51,89.62c-2.39,17.88-6.71,35.73-15.38,51.94-20.17,37.68-64.09,57.47-105,42.31a83.44,83.44,0,0,1-7.72-3.32"/><path class="cls-7-353" d="M825.85,1155.9a93,93,0,0,1,20.78-2.34c23.56,0,45.43,8.85,63.49,24"/><path class="cls-7-353" d="M910.12,1403.57c-18.06,15.13-39.93,24-63.49,24a93,93,0,0,1-25.56-3.57"/><path d="M1110.77,1690.88q-6.43-3.24-12.77-6.57c-117.39-62.14-199.49-151.36-237.44-258a5.75,5.75,0,0,0-10.83,3.85c38.92,109.43,122.91,200.84,242.89,264.35,4.2,2.22,8.46,4.4,12.74,6.55A15.07,15.07,0,0,1,1110.77,1690.88Z"/><defs><style>.cls-1-250{fill:#efefef;}.cls-1-250,.cls-2-250,.cls-5-250{stroke:#000;}.cls-1-250,.cls-5-250{stroke-linecap:round;}.cls-1-250,.cls-2-250{stroke-miterlimit:10;stroke-width:13px;}.cls-2-250{fill:#232323;}.cls-3-250{opacity:0.18;}.cls-4-250{opacity:0.15;}.cls-5-250{fill:none;stroke-linejoin:round;stroke-width:12px;}</style></defs><g id="LOW_REG_copy" data-name="LOW REG copy"><path class="cls-1-250" d="M1235.74,1263.18c2.25-94.79,78.92-170.93,173.16-170.93,94,0,170.45,75.69,173.14,170.08"/><path class="cls-2-250" d="M1480.34,1261.45c-1.66-48.62-21.41-87.38,17.67-87.38,21.63,0,39.33,38.62,40.64,87.39"/><path class="cls-1-250" d="M1918.25,1253c0-67.34,33.49-153.54,120.54-153.54,66.57,0,120.54,76.77,120.54,153.54"/><path class="cls-2-250" d="M2087.16,1255.05c0-42.42-18.11-77.11,13.72-77.11,17.59,0,31.84,34.39,31.84,76.82"/><path class="cls-3-250" d="M1299,1271.76c0-.91,0-1.81,0-2.72h0c0-.52,0-1,0-1.57s0-1,0-1.57h0c0-.91,0-1.81,0-2.73,0-83.72,61-153.38,141.56-168.06a176.42,176.42,0,0,0-31.65-2.86c-95.66,0-173.21,76.53-173.21,170.92,0,.91,0,1.82,0,2.72h0c0,.52,0,1,0,1.57s0,1,0,1.57h0c0,.91,0,1.81,0,2.72,0,94.4,77.55,170.92,173.21,170.92a176.42,176.42,0,0,0,31.65-2.86C1360,1425.15,1299,1355.49,1299,1271.76Z"/><path class="cls-4-250" d="M1981.8,1254.76h2.94l-3-.12c0-.37,0-.74,0-1.11s0-.75,0-1.12l3-.11h-2.94c2.92-69,32.43-130.24,87.37-147.63a96.19,96.19,0,0,0-30.38-4.92c-76.12,0-116.86,70.93-120.29,152.66h-.1c0,.37,0,.74,0,1.11s0,.74,0,1.11h.1c3.43,81.74,44.17,152.67,120.29,152.67a96.19,96.19,0,0,0,30.38-4.92C2014.23,1385,1984.72,1323.74,1981.8,1254.76Z"/><path class="cls-3-250" d="M1276,1153.56S1132.63,1355,1376.16,1441.83c0,0-143.73,5.17-163.45-142C1212.71,1299.87,1205.71,1203.08,1276,1153.56Z"/><path class="cls-3-250" d="M1953.91,1145.73s-128.54,184.84,89.78,264.47c0,0-128.85,4.74-146.53-130.24C1897.16,1280,1890.88,1191.16,1953.91,1145.73Z"/><path class="cls-5-250" d="M1235.69,1261.45H1582c.06,2,.1,4,.1,6,0,96.76-77.55,175.21-173.22,175.21s-173.21-78.45-173.21-175.21c0-2,0-4,.1-6Z"/><path class="cls-5-250" d="M1921.44,1252.3h237.73c-3.25,91.23-55.9,155-120.38,155-76.81,0-117.61-72.23-120.39-154.89Z"/></g><defs><style>.cls-1-453{fill:none;stroke:#000;stroke-linecap:round;stroke-miterlimit:10;stroke-width:13px;}.cls-2-453{opacity:0.18;}</style></defs><g id="BASE_NOSE" data-name="BASE NOSE"><path class="cls-1-453" d="M1683.8,1355.45c0-39.09,31.49-70.78,70.33-70.78s70.34,31.69,70.34,70.78"/><path class="cls-2-453" d="M1779.57,1297.71s-60.7-10.84-64.94,61.86a286,286,0,0,1-32.25,1.53l4.14-25.2,18.23-23.62,14.14-18.09,23.27-3.64,29.29-3.71Z"/></g><defs><style>.cls-1-428{fill:none;stroke:#000;stroke-linecap:round;stroke-miterlimit:10;stroke-width:12px;}.cls-2-428{opacity:0.24;}</style></defs><g id="mouth_frown"><path class="cls-1-428" d="M1586.8,1575.88c20.91-87.8,150.06-117,236.21-95.65,43.7,10.8,80.61,37.84,92.65,77.23"/><path class="cls-2-428" d="M1869.34,1550.36s-142.63-24.43-227.95,14.73C1641.39,1565.09,1727.9,1453.84,1869.34,1550.36Z"/></g></svg>